<?xml version="1.0" encoding="UTF-8" standalone="no"?>
<!-- Created with Inkscape (http://www.inkscape.org/) -->

<svg
   xmlns:dc="http://purl.org/dc/elements/1.1/"
   xmlns:cc="http://creativecommons.org/ns#"
   xmlns:rdf="http://www.w3.org/1999/02/22-rdf-syntax-ns#"
   xmlns:svg="http://www.w3.org/2000/svg"
   xmlns="http://www.w3.org/2000/svg"
   xmlns:sodipodi="http://sodipodi.sourceforge.net/DTD/sodipodi-0.dtd"
   xmlns:inkscape="http://www.inkscape.org/namespaces/inkscape"
   width="1052.3622"
   height="744.09448"
   id="svg2"
   version="1.1"
   inkscape:version="0.48.4 r9939"
   sodipodi:docname="logo.svg"
   inkscape:export-filename="/home/tetra/Documents/CODE/CodeAid/logo.png"
   inkscape:export-xdpi="90"
   inkscape:export-ydpi="90">
  <defs
     id="defs4" />
  <sodipodi:namedview
     id="base"
     pagecolor="#ffffff"
     bordercolor="#666666"
     borderopacity="1.0"
     inkscape:pageopacity="0.0"
     inkscape:pageshadow="2"
     inkscape:zoom="0.35"
     inkscape:cx="375"
     inkscape:cy="520"
     inkscape:document-units="px"
     inkscape:current-layer="layer1"
     showgrid="false"
     inkscape:window-width="849"
     inkscape:window-height="715"
     inkscape:window-x="0"
     inkscape:window-y="30"
     inkscape:window-maximized="0" />
  <metadata
     id="metadata7">
    <rdf:RDF>
      <cc:Work
         rdf:about="">
        <dc:format>image/svg+xml</dc:format>
        <dc:type
           rdf:resource="http://purl.org/dc/dcmitype/StillImage" />
        <dc:title />
      </cc:Work>
    </rdf:RDF>
  </metadata>
  <g
     inkscape:label="Layer 1"
     inkscape:groupmode="layer"
     id="layer1"
     transform="translate(0,-308.2677)">
    <path
       style="fill:#7270d1"
       inkscape:connector-curvature="0"
       d="m 887.59403,439.53229 c -28.797,0 -57.576,10.982 -79.53,32.937 l -250.971,250.938 c -43.91,43.912 -43.91,115.184 0,159.093 43.91,43.91 115.214,43.912 159.125,0 l 250.936,-250.936 c 43.90997,-43.913 43.90997,-115.185 0,-159.094 -21.955,-21.954 -50.765,-32.937 -79.562,-32.938 z m 9.97,23.812 c 3.18,0 6.352,1.23 8.78,3.656 4.853,4.855 4.853,12.71 0,17.564 -4.854,4.853 -12.71,4.853 -17.563,0 -4.852,-4.854 -4.852,-12.71 0,-17.563 2.428,-2.426 5.6,-3.655 8.783,-3.655 z m 34.155,34.156 c 3.18,0 6.353,1.2 8.78,3.626 4.854,4.854 4.854,12.74 0,17.594 -4.854,4.854 -12.74,4.854 -17.594,0 -4.853,-4.854 -4.853,-12.74 0,-17.594 2.427,-2.427 5.632,-3.625 8.813,-3.625 z m -69.314,1 c 3.18,0 6.354,1.23 8.78,3.657 4.855,4.854 4.855,12.71 0.002,17.563 -4.854,4.854 -12.71,4.854 -17.563,0 -4.854,-4.854 -4.854,-12.71 0,-17.563 2.427,-2.426 5.6,-3.656 8.78,-3.656 z m 34.156,34.157 c 3.182,0 6.354,1.198 8.782,3.626 4.853,4.853 4.853,12.74 0,17.593 -4.854,4.854 -12.74,4.854 -17.594,0 -4.854,-4.853 -4.854,-12.74 0,-17.594 2.427,-2.426 5.63,-3.625 8.813,-3.624 z m 71.813,1.5 c 3.18,0 6.354,1.23 8.78,3.657 4.855,4.853 4.855,12.71 0,17.562 -4.852,4.854 -12.708,4.854 -17.56,0 -4.855,-4.853 -4.855,-12.71 0,-17.562 2.426,-2.427 5.6,-3.657 8.78,-3.656 z m -142.625,1 c 3.18,0 6.354,1.23 8.78,3.657 4.855,4.853 4.855,12.71 0,17.562 -4.852,4.854 -12.74,4.854 -17.592,0 -4.854,-4.853 -4.854,-12.71 0,-17.562 2.426,-2.427 5.63,-3.657 8.812,-3.656 z m 34.125,34.157 c 3.18,0 6.385,1.23 8.813,3.656 4.853,4.854 4.853,12.71 0,17.563 -4.854,4.853 -12.74,4.853 -17.594,0 -4.854,-4.854 -4.854,-12.71 0,-17.563 2.427,-2.427 5.6,-3.656 8.78,-3.656 z m 73.344,0 c 3.18,0 6.353,1.23 8.78,3.656 4.854,4.854 4.854,12.71 0,17.563 -4.854,4.853 -12.71,4.853 -17.563,0 -4.853,-4.854 -4.853,-12.71 0,-17.563 2.427,-2.427 5.6,-3.656 8.782,-3.656 z m -194.814,4.5 13.22,13.22 -73.907,73.905 -13.22,-13.22 73.906,-73.906 z m 55.78,0 73.908,73.906 -13.22,13.22 -73.905,-73.907 13.217,-13.22 z m 102.377,32.156 c 3.18,0 6.353,1.23 8.78,3.656 4.854,4.854 4.854,12.71 0,17.563 -4.853,4.852 -12.74,4.852 -17.593,0 -4.854,-4.855 -4.854,-12.71 0,-17.564 2.427,-2.427 5.63,-3.656 8.813,-3.656 z m -41.688,84.28 13.22,13.22 -73.94,73.938 -13.186,-13.22 73.905,-73.937 z m -177.156,0.033 73.905,73.906 -13.22,13.217 -73.902,-73.937 13.22,-13.188 z m -42.25,35.156 c 3.18,0 6.353,1.196 8.78,3.624 4.854,4.853 4.854,12.74 0,17.594 -4.854,4.853 -12.71,4.853 -17.563,0 -4.853,-4.854 -4.853,-12.74 0,-17.594 2.427,-2.427 5.6,-3.625 8.782,-3.625 z m 34.155,34.155 c 3.18,0 6.354,1.198 8.78,3.625 4.855,4.854 4.855,12.74 0,17.594 -4.852,4.853 -12.708,4.853 -17.56,0 -4.855,-4.854 -4.855,-12.74 0,-17.594 2.426,-2.427 5.6,-3.625 8.78,-3.625 z m -69.313,1 c 3.182,0 6.354,1.198 8.782,3.625 4.853,4.854 4.853,12.74 0,17.594 -4.854,4.853 -12.71,4.853 -17.563,0 -4.852,-4.854 -4.852,-12.74 0,-17.594 2.428,-2.427 5.6,-3.625 8.782,-3.625 z m 34.157,34.156 c 3.18,0 6.353,1.2 8.78,3.626 4.854,4.854 4.854,12.74 0,17.594 -4.854,4.854 -12.71,4.854 -17.563,0 -4.853,-4.854 -4.853,-12.74 0,-17.594 2.427,-2.427 5.6,-3.625 8.782,-3.625 z m 71.81,1.5 c 3.182,0 6.355,1.2 8.782,3.626 4.854,4.854 4.854,12.74 0,17.594 -4.853,4.854 -12.708,4.854 -17.562,0 -4.854,-4.854 -4.854,-12.74 0,-17.594 2.427,-2.427 5.6,-3.625 8.78,-3.625 z m -142.624,1 c 3.18,0 6.354,1.2 8.782,3.626 4.853,4.854 4.853,12.74 0,17.594 -4.854,4.854 -12.71,4.854 -17.563,0 -4.854,-4.854 -4.854,-12.74 0,-17.594 2.427,-2.427 5.6,-3.625 8.78,-3.625 z m 34.157,34.158 c 3.18,0 6.353,1.197 8.78,3.625 4.854,4.853 4.854,12.74 0,17.593 -4.853,4.854 -12.708,4.854 -17.562,0 -4.852,-4.853 -4.852,-12.74 0,-17.594 2.428,-2.426 5.6,-3.625 8.782,-3.625 z m 73.312,0 c 3.18,0 6.354,1.197 8.78,3.625 4.855,4.853 4.855,12.74 0,17.593 -4.852,4.854 -12.708,4.854 -17.56,0 -4.855,-4.853 -4.855,-12.74 0,-17.594 2.426,-2.426 5.6,-3.625 8.78,-3.625 z m -36.656,36.656 c 3.18,0 6.353,1.23 8.78,3.656 4.854,4.854 4.854,12.71 0,17.563 -4.854,4.853 -12.71,4.853 -17.563,0 -4.853,-4.854 -4.853,-12.74 0,-17.594 2.427,-2.428 5.6,-3.626 8.782,-3.626 z"
       id="path3039" />
    <path
       style="fill:#7270d1"
       inkscape:connector-curvature="0"
       d="m 530.6208,544.03454 c 0,28.797 10.982,57.576 32.937,79.53 l 250.938,250.971 c 43.912,43.91 115.184,43.91 159.093,0 43.91,-43.91 43.912,-115.214 0,-159.125 l -250.936,-250.936 c -43.913,-43.91 -115.185,-43.91 -159.094,0 -21.954,21.955 -32.937,50.765 -32.938,79.562 z m 23.812,-9.97 c 0,-3.18 1.23,-6.352 3.656,-8.78 4.855,-4.853 12.71,-4.853 17.564,0 4.853,4.854 4.853,12.71 0,17.563 -4.854,4.852 -12.71,4.852 -17.563,0 -2.426,-2.428 -3.655,-5.6 -3.655,-8.783 z m 34.156,-34.155 c 0,-3.18 1.2,-6.353 3.626,-8.78 4.854,-4.854 12.74,-4.854 17.594,0 4.854,4.854 4.854,12.74 0,17.594 -4.854,4.853 -12.74,4.853 -17.594,0 -2.427,-2.427 -3.625,-5.632 -3.625,-8.813 z m 1,69.314 c 0,-3.18 1.23,-6.354 3.657,-8.78 4.854,-4.855 12.71,-4.855 17.563,-0.002 4.854,4.854 4.854,12.71 0,17.563 -4.854,4.854 -12.71,4.854 -17.563,0 -2.426,-2.427 -3.656,-5.6 -3.656,-8.78 z m 34.157,-34.156 c 0,-3.182 1.198,-6.354 3.626,-8.782 4.853,-4.853 12.74,-4.853 17.593,0 4.854,4.854 4.854,12.74 0,17.594 -4.853,4.854 -12.74,4.854 -17.594,0 -2.426,-2.427 -3.625,-5.63 -3.624,-8.813 z m 1.5,-71.813 c 0,-3.18 1.23,-6.354 3.657,-8.78 4.853,-4.855 12.71,-4.855 17.562,0 4.854,4.852 4.854,12.708 0,17.56 -4.853,4.855 -12.71,4.855 -17.562,0 -2.427,-2.426 -3.657,-5.6 -3.656,-8.78 z m 1,142.625 c 0,-3.18 1.23,-6.354 3.657,-8.78 4.853,-4.855 12.71,-4.855 17.562,0 4.854,4.852 4.854,12.74 0,17.592 -4.853,4.854 -12.71,4.854 -17.562,0 -2.427,-2.426 -3.657,-5.63 -3.656,-8.812 z m 34.157,-34.125 c 0,-3.18 1.23,-6.385 3.656,-8.813 4.854,-4.853 12.71,-4.853 17.563,0 4.853,4.854 4.853,12.74 0,17.594 -4.854,4.854 -12.71,4.854 -17.563,0 -2.427,-2.427 -3.656,-5.6 -3.656,-8.78 z m 0,-73.344 c 0,-3.18 1.23,-6.353 3.656,-8.78 4.854,-4.854 12.71,-4.854 17.563,0 4.853,4.854 4.853,12.71 0,17.563 -4.854,4.853 -12.71,4.853 -17.563,0 -2.427,-2.427 -3.656,-5.6 -3.656,-8.782 z m 4.5,194.814 13.22,-13.22 73.905,73.907 -13.22,13.22 -73.906,-73.906 z m 0,-55.78 73.906,-73.908 13.22,13.22 -73.907,73.905 -13.22,-13.217 z m 32.156,-102.377 c 0,-3.18 1.23,-6.353 3.656,-8.78 4.854,-4.854 12.71,-4.854 17.563,0 4.852,4.853 4.852,12.74 0,17.593 -4.855,4.854 -12.71,4.854 -17.564,0 -2.427,-2.427 -3.656,-5.63 -3.656,-8.813 z m 84.28,41.688 13.22,-13.22 73.938,73.94 -13.22,13.186 -73.937,-73.905 z m 0.033,177.156 73.906,-73.905 13.217,13.22 -73.937,73.902 -13.188,-13.22 z m 35.156,42.25 c 0,-3.18 1.196,-6.353 3.624,-8.78 4.853,-4.854 12.74,-4.854 17.594,0 4.853,4.854 4.853,12.71 0,17.563 -4.854,4.853 -12.74,4.853 -17.594,0 -2.427,-2.427 -3.625,-5.6 -3.625,-8.782 z m 34.155,-34.155 c 0,-3.18 1.198,-6.354 3.625,-8.78 4.854,-4.855 12.74,-4.855 17.594,0 4.853,4.852 4.853,12.708 0,17.56 -4.854,4.855 -12.74,4.855 -17.594,0 -2.427,-2.426 -3.625,-5.6 -3.625,-8.78 z m 1,69.313 c 0,-3.182 1.198,-6.354 3.625,-8.782 4.854,-4.853 12.74,-4.853 17.594,0 4.853,4.854 4.853,12.71 0,17.563 -4.854,4.852 -12.74,4.852 -17.594,0 -2.427,-2.428 -3.625,-5.6 -3.625,-8.782 z m 34.156,-34.157 c 0,-3.18 1.2,-6.353 3.626,-8.78 4.854,-4.854 12.74,-4.854 17.594,0 4.854,4.854 4.854,12.71 0,17.563 -4.854,4.853 -12.74,4.853 -17.594,0 -2.427,-2.427 -3.625,-5.6 -3.625,-8.782 z m 1.5,-71.81 c 0,-3.182 1.2,-6.355 3.626,-8.782 4.854,-4.854 12.74,-4.854 17.594,0 4.854,4.853 4.854,12.708 0,17.562 -4.854,4.854 -12.74,4.854 -17.594,0 -2.427,-2.427 -3.625,-5.6 -3.625,-8.78 z m 1,142.624 c 0,-3.18 1.2,-6.354 3.626,-8.782 4.854,-4.853 12.74,-4.853 17.594,0 4.854,4.854 4.854,12.71 0,17.563 -4.854,4.854 -12.74,4.854 -17.594,0 -2.427,-2.427 -3.625,-5.6 -3.625,-8.78 z m 34.158,-34.157 c 0,-3.18 1.197,-6.353 3.625,-8.78 4.853,-4.854 12.74,-4.854 17.593,0 4.854,4.853 4.854,12.708 0,17.562 -4.853,4.852 -12.74,4.852 -17.594,0 -2.426,-2.428 -3.625,-5.6 -3.625,-8.782 z m 0,-73.312 c 0,-3.18 1.197,-6.354 3.625,-8.78 4.853,-4.855 12.74,-4.855 17.593,0 4.854,4.852 4.854,12.708 0,17.56 -4.853,4.855 -12.74,4.855 -17.594,0 -2.426,-2.426 -3.625,-5.6 -3.625,-8.78 z m 36.656,36.656 c 0,-3.18 1.23,-6.353 3.656,-8.78 4.854,-4.854 12.71,-4.854 17.563,0 4.853,4.854 4.853,12.71 0,17.563 -4.854,4.853 -12.74,4.853 -17.594,0 -2.428,-2.427 -3.626,-5.6 -3.626,-8.782 z"
       id="path3039-0" />
    <text
       xml:space="preserve"
       style="font-size:40px;font-style:normal;font-variant:normal;font-weight:normal;font-stretch:normal;line-height:81.00000024%;letter-spacing:0px;word-spacing:0px;fill:#000000;fill-opacity:1;stroke:none;font-family:Raleway;-inkscape-font-specification:Raleway"
       x="31.428574"
       y="661.50507"
       id="text3077"
       sodipodi:linespacing="81%"><tspan
         sodipodi:role="line"
         id="tspan3079"
         x="31.428574"
         y="661.50507"
         style="font-size:250px;font-weight:bold;line-height:81.00000024%;-inkscape-font-specification:Raleway Bold">Code</tspan><tspan
         sodipodi:role="line"
         x="31.428574"
         y="864.00507"
         style="font-size:250px;font-weight:bold;line-height:81.00000024%;-inkscape-font-specification:Raleway Bold"
         id="tspan2988">Aid</tspan></text>
    <text
       xml:space="preserve"
       style="font-size:40px;font-style:normal;font-variant:normal;font-weight:normal;font-stretch:normal;line-height:125%;letter-spacing:0px;word-spacing:0px;fill:#000000;fill-opacity:1;stroke:none;font-family:Raleway;-inkscape-font-specification:Raleway"
       x="442.85712"
       y="735.79083"
       id="text3081"
       sodipodi:linespacing="125%"><tspan
         sodipodi:role="line"
         id="tspan3083"
         x="442.85712"
         y="735.79083"
         style="font-weight:bold;-inkscape-font-specification:Raleway Bold">aiding</tspan><tspan
         sodipodi:role="line"
         x="442.85712"
         y="785.79083"
         style="font-weight:bold;-inkscape-font-specification:Raleway Bold"
         id="tspan2990">your</tspan><tspan
         sodipodi:role="line"
         x="442.85712"
         y="835.79083"
         style="font-weight:bold;-inkscape-font-specification:Raleway Bold"
         id="tspan2992">code</tspan></text>
  </g>
</svg>
